<?xml version="1.0" encoding="UTF-8" standalone="no"?>
<!-- Generator: Adobe Illustrator 19.0.0, SVG Export Plug-In . SVG Version: 6.00 Build 0)  -->

<svg
   xmlns:dc="http://purl.org/dc/elements/1.1/"
   xmlns:cc="http://creativecommons.org/ns#"
   xmlns:rdf="http://www.w3.org/1999/02/22-rdf-syntax-ns#"
   xmlns:svg="http://www.w3.org/2000/svg"
   xmlns="http://www.w3.org/2000/svg"
   xmlns:sodipodi="http://sodipodi.sourceforge.net/DTD/sodipodi-0.dtd"
   xmlns:inkscape="http://www.inkscape.org/namespaces/inkscape"
   version="1.1"
   id="Layer_1"
   x="0px"
   y="0px"
   viewBox="0 0 349.84036 349.84036"
   xml:space="preserve"
   sodipodi:docname="logo.svg"
   inkscape:version="0.92.1 15371"
   width="349.84036"
   height="349.84036"><metadata
     id="metadata61"><rdf:RDF><cc:Work
         rdf:about=""><dc:format>image/svg+xml</dc:format><dc:type
           rdf:resource="http://purl.org/dc/dcmitype/StillImage" /><dc:title></dc:title></cc:Work></rdf:RDF></metadata><defs
     id="defs59" /><sodipodi:namedview
     pagecolor="#ffffff"
     bordercolor="#666666"
     borderopacity="1"
     objecttolerance="10"
     gridtolerance="10"
     guidetolerance="10"
     inkscape:pageopacity="0"
     inkscape:pageshadow="2"
     inkscape:window-width="1855"
     inkscape:window-height="1176"
     id="namedview57"
     showgrid="false"
     inkscape:zoom="1.84375"
     inkscape:cx="167.87724"
     inkscape:cy="152.50255"
     inkscape:window-x="65"
     inkscape:window-y="24"
     inkscape:window-maximized="1"
     inkscape:current-layer="Layer_1"
     inkscape:pagecheckerboard="false"
     fit-margin-top="0"
     fit-margin-left="0"
     fit-margin-right="0"
     fit-margin-bottom="0" /><g
     id="g6321"><rect
       y="4.6093751e-06"
       x="-3.2519532e-07"
       height="349.84036"
       width="349.84036"
       id="rect267"
       style="fill:none;stroke-width:0.56679976;stroke:none" /><g
       transform="matrix(0.45254198,0,0,0.45254198,60.795315,59.26711)"
       id="g97"><g
         id="g4"><path
           inkscape:connector-curvature="0"
           id="path2"
           d="M 465.455,240.485 V 162.909 H 279.273 v -52.787 c 13.908,-8.049 23.273,-23.079 23.273,-40.304 0,-25.706 -20.84,-46.545 -46.545,-46.545 -25.705,0 -46.545,20.84 -46.545,46.545 0,17.225 9.365,32.254 23.273,40.304 v 52.787 H 46.545 v 77.576 H 0 v 124.121 h 46.545 v 77.576 h 139.636 v 46.545 H 325.817 V 442.182 H 465.453 V 364.606 H 512 V 240.485 Z m 0,77.576 H 418.91 v 77.576 H 279.273 v 46.545 H 232.728 V 395.637 H 93.091 V 318.061 H 46.545 v -31.03 H 93.09 v -77.576 h 325.818 v 77.576 h 46.545 v 31.03 z" /></g><g
         id="g10"><circle
           id="circle8"
           r="31.030001"
           cy="271.51501"
           cx="162.909" /></g><g
         id="g16"><circle
           id="circle14"
           r="31.030001"
           cy="271.51501"
           cx="349.091" /></g><g
         id="g22"><path
           inkscape:connector-curvature="0"
           id="path20"
           d="m 209.455,318.061 c 0,25.706 20.84,46.545 46.545,46.545 25.705,0 46.545,-20.84 46.545,-46.545 z" /></g></g><path
       id="path2-6"
       d="m 174.9198,89.87684 c -95.494195,0 -172.906551,32.42616 -172.906551,72.42567 v 37.66138 c 0,3.19968 6.1932,5.79415 13.832766,5.79415 h 13.83201 V 176.78758 H 15.845259 v -14.48507 c 0,-36.74089 71.360616,-66.63184 159.074551,-66.63184 87.71393,0 159.07455,29.89095 159.07455,66.63184 v 14.48507 h -13.83277 v 28.97046 h 6.91638 c 0,20.76593 -40.33561,37.66138 -89.91147,37.66138 h -13.83276 v 5.79416 h 13.83276 c 57.20787,0 103.74424,-19.49278 103.74424,-43.45554 v -0.78138 c 4.13107,-1.00224 6.91638,-2.86919 6.91638,-5.01245 v -37.6617 C 347.82637,122.303 270.41401,89.87684 174.9198,89.87684 Z"
       style="fill:#5b5d6e;stroke-width:0.48958814"
       inkscape:connector-curvature="0" /><path
       id="path4"
       d="m 57.342805,214.44928 h -13.83201 c -7.63957,0 -13.83277,-2.59384 -13.83277,-5.79416 v -34.7643 c 0,-3.2 6.19245,-5.79415 13.83277,-5.79415 h 13.83276 c 7.63957,0 13.83277,2.59384 13.83277,5.79415 v 34.7643 c -7.6e-4,3.20032 -6.1932,5.79416 -13.83352,5.79416 z"
       style="fill:#959cb3;stroke-width:0.48958814"
       inkscape:connector-curvature="0" /><path
       id="path6"
       d="m 71.175565,208.65512 v -34.7643 c 0,-3.2 -6.1932,-5.79415 -13.83276,-5.79415 h -6.91638 v 46.35261 h 6.91638 c 7.63956,0 13.83276,-2.59448 13.83276,-5.79416 z"
       style="fill:#707487;stroke-width:0.48958814"
       inkscape:connector-curvature="0" /><path
       id="path8"
       d="m 292.4968,168.09667 h 13.83277 c 7.63957,0 13.83277,2.59384 13.83277,5.79415 v 34.7643 c 0,3.2 -6.19245,5.79416 -13.83277,5.79416 H 292.4968 c -7.63956,0 -13.83276,-2.59384 -13.83276,-5.79416 v -34.7643 c 0,-3.20031 6.19244,-5.79415 13.83276,-5.79415 z"
       style="fill:#959cb3;stroke-width:0.48958814"
       inkscape:connector-curvature="0" /><g
       id="g14"
       transform="matrix(0.7564676,0,0,0.31686293,-18.735901,89.87684)"><path
         id="path10"
         d="m 393.143,265.143 v 109.714 c 0,10.099 8.187,18.286 18.286,18.286 h 9.143 V 246.857 h -9.143 c -10.099,0 -18.286,8.188 -18.286,18.286 z"
         style="fill:#707487"
         inkscape:connector-curvature="0" /><path
         id="path12"
         d="m 320,512 h -27.429 c -5.049,0 -9.143,-4.094 -9.143,-9.143 v -18.286 c 0,-5.049 4.094,-9.143 9.143,-9.143 H 320 c 10.099,0 18.286,8.186 18.286,18.286 v 0 c 0,10.1 -8.187,18.286 -18.286,18.286 z"
         style="fill:#707487"
         inkscape:connector-curvature="0" /></g><circle
       r="21.139883"
       cy="90.543655"
       cx="176.61935"
       id="path246"
       style="fill:#000000;stroke-width:1.04002488" /></g><path
     style="fill:#ffffff;stroke:none;stroke-width:0.54237288"
     d="M 166.46707,248.809 V 238.23272 H 134.73826 103.00944 V 220.60561 202.97849 H 92.433172 81.856901 v -6.77966 -6.77966 h 10.576271 10.576268 v -17.62712 -17.62712 h 73.49153 73.49152 v 17.62712 17.62712 h 10.57628 10.57627 v 6.77966 6.77966 h -10.57627 -10.57628 v 17.62712 17.62711 h -31.45762 -31.45763 v 10.57628 10.57627 h -10.30508 -10.30509 z m 14.21059,-24.73693 c 9.02737,-1.88871 16.02061,-9.46256 17.09232,-18.51142 l 0.30581,-2.58216 h -21.30342 -21.30342 l 0.29787,3.28488 c 0.88429,9.7521 10.04485,17.92355 20.57186,18.3506 0.80566,0.0327 2.7582,-0.21117 4.33898,-0.5419 z m -39.92035,-29.11784 c 2.58985,-1.32124 5.98174,-4.91771 7.0506,-7.47585 0.9388,-2.24687 0.98474,-7.21745 0.0943,-10.19968 -1.01941,-3.41407 -5.39962,-7.61579 -9.05897,-8.68982 -3.64681,-1.07035 -5.07778,-1.081 -8.50478,-0.0633 -10.25261,3.0447 -13.36175,16.57744 -5.52085,24.02989 4.07736,3.87536 11.00253,4.91752 15.93973,2.39875 z m 84.58085,-0.18123 c 4.81226,-2.40336 7.50288,-6.94746 7.50552,-12.67587 0.003,-5.67782 -2.40668,-9.77682 -7.32834,-12.4678 -2.43751,-1.33274 -3.53204,-1.59255 -6.70929,-1.59255 -3.17724,0 -4.27177,0.25981 -6.70928,1.59255 -8.51435,4.65534 -10.16061,15.71736 -3.35229,22.52568 4.40713,4.40713 10.94571,5.43873 16.59368,2.61799 z"
     id="path6323"
     inkscape:connector-curvature="0" /></svg>